<svg xmlns="http://www.w3.org/2000/svg" viewBox="0 0 21 21">
  <defs>
    <style>
      .cls-1 {
        fill: #fff;
      }
    </style>
  </defs>
  <g id="main-button-icon1" transform="translate(-177 -601)">
    <path id="Plus" class="cls-1" d="M12,17a1,1,0,0,1-1-1V13a1,1,0,0,1,1-1h3a1,1,0,0,1,1,1v3a1,1,0,0,1-1,1ZM4,17a1,1,0,0,1-1-1V13a1,1,0,0,1,1-1H7a1,1,0,0,1,1,1v3a1,1,0,0,1-1,1Zm-8,0a1,1,0,0,1-1-1V13a1,1,0,0,1,1-1h3a1,1,0,0,1,1,1v3a1,1,0,0,1-1,1ZM12,9a1,1,0,0,1-1-1V5a1,1,0,0,1,1-1h3a1,1,0,0,1,1,1V8a1,1,0,0,1-1,1ZM4,9A1,1,0,0,1,3,8V5A1,1,0,0,1,4,4H7A1,1,0,0,1,8,5V8A1,1,0,0,1,7,9ZM-4,9A1,1,0,0,1-5,8V5A1,1,0,0,1-4,4h3A1,1,0,0,1,0,5V8A1,1,0,0,1-1,9ZM12,1a1,1,0,0,1-1-1V-3a1,1,0,0,1,1-1h3a1,1,0,0,1,1,1V0a1,1,0,0,1-1,1ZM4,1A1,1,0,0,1,3,0V-3A1,1,0,0,1,4-4H7A1,1,0,0,1,8-3V0A1,1,0,0,1,7,1ZM-4,1A1,1,0,0,1-5,0V-3A1,1,0,0,1-4-4h3A1,1,0,0,1,0-3V0A1,1,0,0,1-1,1Z" transform="translate(181.999 605)"/>
  </g>
</svg>
