<svg xmlns="http://www.w3.org/2000/svg" xmlns:xlink="http://www.w3.org/1999/xlink" viewBox="0 0 96 96">
  <defs>
    <style>
      .cls-1 {
        fill: #263970;
      }

      .cls-2 {
        fill: #fff;
      }

      .cls-3 {
        filter: url(#Blue_Button);
      }
    </style>
    <filter id="Blue_Button" x="0" y="0" width="96" height="96" filterUnits="userSpaceOnUse">
      <feOffset dy="10" input="SourceAlpha"/>
      <feGaussianBlur stdDeviation="6" result="blur"/>
      <feFlood flood-color="#c1ddec"/>
      <feComposite operator="in" in2="blur"/>
      <feComposite in="SourceGraphic"/>
    </filter>
  </defs>
  <g id="main-button-icon" transform="translate(-140 -574)">
    <g class="cls-3" transform="matrix(1, 0, 0, 1, 140, 574)">
      <rect id="Blue_Button-2" data-name="Blue Button" class="cls-1" width="60" height="60" rx="30" transform="translate(18 8)"/>
    </g>
    <path id="Plus" class="cls-2" d="M12,17a1,1,0,0,1-1-1V13a1,1,0,0,1,1-1h3a1,1,0,0,1,1,1v3a1,1,0,0,1-1,1ZM4,17a1,1,0,0,1-1-1V13a1,1,0,0,1,1-1H7a1,1,0,0,1,1,1v3a1,1,0,0,1-1,1Zm-8,0a1,1,0,0,1-1-1V13a1,1,0,0,1,1-1h3a1,1,0,0,1,1,1v3a1,1,0,0,1-1,1ZM12,9a1,1,0,0,1-1-1V5a1,1,0,0,1,1-1h3a1,1,0,0,1,1,1V8a1,1,0,0,1-1,1ZM4,9A1,1,0,0,1,3,8V5A1,1,0,0,1,4,4H7A1,1,0,0,1,8,5V8A1,1,0,0,1,7,9ZM-4,9A1,1,0,0,1-5,8V5A1,1,0,0,1-4,4h3A1,1,0,0,1,0,5V8A1,1,0,0,1-1,9ZM12,1a1,1,0,0,1-1-1V-3a1,1,0,0,1,1-1h3a1,1,0,0,1,1,1V0a1,1,0,0,1-1,1ZM4,1A1,1,0,0,1,3,0V-3A1,1,0,0,1,4-4H7A1,1,0,0,1,8-3V0A1,1,0,0,1,7,1ZM-4,1A1,1,0,0,1-5,0V-3A1,1,0,0,1-4-4h3A1,1,0,0,1,0-3V0A1,1,0,0,1-1,1Z" transform="translate(181.999 605)"/>
  </g>
</svg>
