<svg xmlns="http://www.w3.org/2000/svg" viewBox="0 0 27.356 35.994">
  <defs>
    <style>
      .cls-1 {
        fill: #fff;
        opacity: 0.5;
      }
    </style>
  </defs>
  <g id="approvals-waiting-icon" transform="translate(-196.637 -170.195)">
    <path id="Forma_1" data-name="Forma 1" class="cls-1" d="M2.736,35.994A2.752,2.752,0,0,1,0,33.225V8.306A2.752,2.752,0,0,1,2.736,5.537h3.8a4.086,4.086,0,0,1,1.9-1.223A1.9,1.9,0,0,0,9.734,3a4.091,4.091,0,0,1,7.888,0,1.894,1.894,0,0,0,1.3,1.311,4.086,4.086,0,0,1,1.905,1.223h3.8a2.752,2.752,0,0,1,2.735,2.769c0,9.526,0,17.056,0,24.919a2.752,2.752,0,0,1-2.736,2.769ZM1.368,8.306V33.225A1.378,1.378,0,0,0,2.736,34.61H24.621a1.378,1.378,0,0,0,1.368-1.384c0-2.4,0-20.961,0-24.919a1.378,1.378,0,0,0-1.368-1.384H21.649a4.186,4.186,0,0,1,.236,1.384v2.769H5.471v-2.8a4.187,4.187,0,0,1,.234-1.351H2.736A1.378,1.378,0,0,0,1.368,8.306Zm9.681-4.921a3.265,3.265,0,0,1-2.234,2.26A2.779,2.779,0,0,0,6.839,8.284V9.691H20.517V8.306A2.776,2.776,0,0,0,18.54,5.645a3.262,3.262,0,0,1-2.232-2.259,2.728,2.728,0,0,0-5.259,0Zm-4.5,19.076.967-.979,3.624,3.668,8.221-8.321.967.979-9.188,9.3ZM12.673,4.153A1.026,1.026,0,1,1,13.7,5.191,1.032,1.032,0,0,1,12.673,4.153Z" transform="translate(196.637 170.195)"/>
  </g>
</svg>
