<svg xmlns="http://www.w3.org/2000/svg" viewBox="0 0 13.51 7.51">
  <defs>
    <style>
      .cls-1 {
        fill: #263970;
      }
    </style>
  </defs>
  <g id="down-arrow-icon" transform="translate(-311.011 -199.231)">
    <path id="down-arrow-icon-2" data-name="down-arrow-icon" class="cls-1" d="M1597.541-4.4l-5.929-5.93a.742.742,0,0,1-.081-.07.747.747,0,0,1-.219-.536.747.747,0,0,1,.219-.535.751.751,0,0,1,.078-.068l5.932-5.932a.751.751,0,0,1,1.061,0,.751.751,0,0,1,0,1.061l-5.476,5.475,5.476,5.475a.751.751,0,0,1,0,1.061.749.749,0,0,1-.531.219A.749.749,0,0,1,1597.541-4.4Z" transform="translate(328.7 1798.052) rotate(-90)"/>
  </g>
</svg>
