<svg xmlns="http://www.w3.org/2000/svg" viewBox="0 0 24 23.826">
  <defs>
    <style>
      .cls-1 {
        fill: #fff;
      }
    </style>
  </defs>
  <path id="status-button-icon-s" class="cls-1" d="M9.811,23.637a11.9,11.9,0,0,1-4.784-2A12.156,12.156,0,0,1,3.49,20.35l0,0-.012-.013A11.907,11.907,0,0,1,.115,13.876c-.042-.243-.076-.487-.1-.73,0-.016-.006-.03-.007-.046-.026-.241-.045-.487-.056-.729,0-.008,0-.017,0-.025a11.9,11.9,0,0,1,1.9-7.016c.009-.015.017-.031.027-.046.082-.127.168-.253.255-.377.053-.075.108-.151.162-.225.013-.018.027-.034.041-.05A11.9,11.9,0,0,1,8.932.211L8.967.2h.006q.45-.114.914-.195a11.915,11.915,0,0,1,8.731,1.857L19.373.77c.21-.3.462-.261.56.095l.879,3.168a.539.539,0,0,1-.488.705l-3.274.293c-.367.033-.5-.188-.286-.491l.754-1.089a10.085,10.085,0,0,0-11.3.091l-.035.024a10.068,10.068,0,0,0-.042,16.491,10.3,10.3,0,0,0,.96.6l0,0c.179.1.364.191.548.278l.027.015a9.963,9.963,0,0,0,2.475.786.965.965,0,1,1-.34,1.9Zm3.57-.17a.965.965,0,0,1,.38-1.738c.2-.037.4-.081.6-.13a.965.965,0,0,1,.466,1.872c-.236.059-.476.111-.715.155a.961.961,0,0,1-.731-.16Zm3.518-1.3a.966.966,0,0,1,.074-1.625c.177-.1.353-.211.523-.323a.965.965,0,0,1,1.064,1.61c-.2.134-.412.263-.622.384a.965.965,0,0,1-1.038-.047Zm2.885-2.4c-.024-.017-.048-.035-.071-.055a.965.965,0,0,1-.109-1.36c.132-.155.261-.316.383-.48a.965.965,0,1,1,1.544,1.158c-.146.195-.3.388-.458.573a.965.965,0,0,1-1.289.164Zm2.12-3.117a.963.963,0,0,1-.558-1.245c.073-.191.141-.386.2-.581a.965.965,0,1,1,1.841.577c-.073.231-.153.463-.24.69a.963.963,0,0,1-1.245.558Zm-4.227-.387-7.113-3.677V4.812a.78.78,0,1,1,1.561,0v6.827l6.269,3.241a.78.78,0,1,1-.717,1.387Zm5.272-3.229A.965.965,0,0,1,22,12.05c0-.2,0-.41-.005-.613a.965.965,0,1,1,1.928-.076c.01.243.012.489.006.732a.965.965,0,0,1-.964.944ZM21.855,9.151a.961.961,0,0,1-.36-.485c-.064-.194-.135-.388-.211-.577a.965.965,0,1,1,1.791-.716c.09.225.175.456.251.687a.965.965,0,0,1-1.472,1.091Z" transform="translate(0.064 0.174)"/>
</svg>
