<svg xmlns="http://www.w3.org/2000/svg" viewBox="0 0 33.281 35.994">
  <defs>
    <style>
      .cls-1 {
        fill: #fff;
        opacity: 0.5;
      }
    </style>
  </defs>
  <g id="task-pennding-icon" transform="translate(-20 -168.195)">
    <path id="Forma_1" data-name="Forma 1" class="cls-1" d="M2.664,35.994A2.665,2.665,0,0,1,0,33.328v-24A2.665,2.665,0,0,1,2.664,6.665H5.556a4.006,4.006,0,0,1,2.659-2.51A1.837,1.837,0,0,0,9.479,2.892a4,4,0,0,1,7.681,0,1.834,1.834,0,0,0,1.262,1.263,4,4,0,0,1,2.659,2.511h2.894a2.665,2.665,0,0,1,2.664,2.666v3.609l-1.332,1.342V9.332A1.332,1.332,0,0,0,23.975,8H21.311v2.666H5.328V8H2.664A1.332,1.332,0,0,0,1.332,9.332v24a1.333,1.333,0,0,0,1.332,1.333H23.975a1.333,1.333,0,0,0,1.332-1.333V23.733L18.39,30.656c-1.344.007-.532.006-3.739.006v-3.8L29.124,12.371a1.332,1.332,0,0,1,1.884,0l1.884,1.885a1.335,1.335,0,0,1,0,1.885L26.639,22.4V33.328a2.665,2.665,0,0,1-2.664,2.666Zm13.319-8.585V28.44l.887.888c.478,0,.619,0,.965,0l.929-.929L16.88,26.511Zm1.839-1.841,1.884,1.885,8.476-8.484L26.3,17.084Zm9.418-9.427,1.884,1.885.942-.943L28.182,15.2Zm1.884-1.885,1.884,1.885.942-.943-1.884-1.885Zm-18.365-11A3.162,3.162,0,0,1,8.584,5.436,2.681,2.681,0,0,0,6.66,7.977V9.332H19.979V8a2.678,2.678,0,0,0-1.925-2.563A3.158,3.158,0,0,1,15.88,3.26a2.665,2.665,0,0,0-5.121,0ZM5.327,29.328V28h6.66v1.333Zm0-4V24h10.3l-1.332,1.333Zm0-4V20H19.622L18.29,21.33Zm0-4V16H21.311V17.33ZM12.341,4a1,1,0,1,1,1,1A1,1,0,0,1,12.341,4Z" transform="translate(20 168.195)"/>
  </g>
</svg>
